<svg width="77" height="65" viewBox="0 0 77 65" fill="none" xmlns="http://www.w3.org/2000/svg">
<path d="M77 25.6667C77 27.9357 76.0986 30.1119 74.4941 31.7164C72.8897 33.3208 70.7135 34.2222 68.4444 34.2222H8.55556C6.28648 34.2222 4.11034 33.3208 2.50586 31.7164C0.901386 30.1119 0 27.9357 0 25.6667V8.55556C0 6.28648 0.901386 4.11034 2.50586 2.50586C4.11034 0.901386 6.28648 0 8.55556 0H68.4444C70.7135 0 72.8897 0.901386 74.4941 2.50586C76.0986 4.11034 77 6.28648 77 8.55556V25.6667Z" fill="#FFE11A"/>
<path d="M12.8333 0H8.55556C6.28648 0 4.11034 0.901386 2.50586 2.50586C0.901386 4.11034 0 6.28648 0 8.55556L0 12.8333L12.8333 0ZM25.6667 0L0 25.6667C0 28.5756 1.45872 31.1379 3.67889 32.6822L36.3611 0H25.6667ZM14.9722 34.2222H25.6667L59.8889 0H49.1944L14.9722 34.2222ZM49.1944 34.2222L76.769 6.64767C76.4739 5.36277 75.8856 4.16358 75.05 3.14391C74.2143 2.12423 73.1541 1.31174 71.9522 0.77L38.5 34.2222H49.1944ZM77 25.6667V19.25L62.0278 34.2222H68.4444C70.7135 34.2222 72.8897 33.3208 74.4941 31.7164C76.0986 30.1119 77 27.9357 77 25.6667Z" fill="#292F33"/>
<path d="M8.55566 34.2222H19.2501V64.1666H8.55566V34.2222ZM57.7501 34.2222H68.4445V64.1666H57.7501V34.2222Z" fill="#2C2C2D"/>
</svg>
