<svg width="97" height="97" viewBox="0 0 97 97" fill="none" xmlns="http://www.w3.org/2000/svg">
<g clip-path="url(#clip0_19_329)">
<path d="M87.9556 96.2317H8.5073C7.59324 96.2317 6.85205 95.4905 6.85205 94.5764V91.2661C6.85205 90.352 7.59324 89.6108 8.5073 89.6108H87.9556C88.8696 89.6108 89.6108 90.352 89.6108 91.2661V94.5764C89.6108 95.4905 88.8696 96.2317 87.9556 96.2317Z" fill="#2C2C2D"/>
<path d="M50.7252 0.231445L45.7377 0.231445C44.2716 0.231445 42.9801 1.19576 42.5637 2.60145L16.7832 89.6108H79.6797L53.8992 2.60145C53.4828 1.19576 52.1913 0.231445 50.7252 0.231445Z" fill="#2C2C2D"/>
<path d="M32.4766 36.6452H63.9859L60.0627 23.4038H36.3998L32.4766 36.6452Z" fill="white"/>
<path d="M22.668 69.7488H73.7947L69.8713 56.5073H26.5914L22.668 69.7488Z" fill="white"/>
<path d="M41.3042 6.85231H55.1586L54.1778 3.54199H42.285L41.3042 6.85231Z" fill="#2C2C2D"/>
<path d="M39.3428 13.4729H57.1204L56.1396 10.1626H40.3236L39.3428 13.4729Z" fill="#2C2C2D"/>
</g>
<defs>
<clipPath id="clip0_19_329">
<rect width="96" height="96" fill="white" transform="translate(0.231445 0.231445)"/>
</clipPath>
</defs>
</svg>
