<svg width="17" height="17" viewBox="0 0 17 17" fill="none" xmlns="http://www.w3.org/2000/svg">
<path d="M11.5882 9.9165C11.6448 9.449 11.6873 8.9815 11.6873 8.49984C11.6873 8.01817 11.6448 7.55067 11.5882 7.08317H13.9823C14.0957 7.5365 14.1665 8.01109 14.1665 8.49984C14.1665 8.98859 14.0957 9.46317 13.9823 9.9165M10.3344 13.8548C10.7594 13.0686 11.0853 12.2186 11.3119 11.3332H13.4015C12.7152 12.5149 11.6265 13.41 10.3344 13.8548ZM10.1573 9.9165H6.84234C6.7715 9.449 6.729 8.9815 6.729 8.49984C6.729 8.01817 6.7715 7.54359 6.84234 7.08317H10.1573C10.2211 7.54359 10.2707 8.01817 10.2707 8.49984C10.2707 8.9815 10.2211 9.449 10.1573 9.9165ZM8.49984 14.1382C7.91192 13.2882 7.43734 12.3461 7.14692 11.3332H9.85275C9.56234 12.3461 9.08775 13.2882 8.49984 14.1382ZM5.6665 5.6665H3.59817C4.27721 4.48149 5.36522 3.58488 6.65817 3.14484C6.23317 3.93109 5.91442 4.78109 5.6665 5.6665ZM3.59817 11.3332H5.6665C5.91442 12.2186 6.23317 13.0686 6.65817 13.8548C5.36778 13.4102 4.28121 12.5148 3.59817 11.3332ZM3.01734 9.9165C2.904 9.46317 2.83317 8.98859 2.83317 8.49984C2.83317 8.01109 2.904 7.5365 3.01734 7.08317H5.4115C5.35484 7.55067 5.31234 8.01817 5.31234 8.49984C5.31234 8.9815 5.35484 9.449 5.4115 9.9165M8.49984 2.85442C9.08775 3.70442 9.56234 4.65359 9.85275 5.6665H7.14692C7.43734 4.65359 7.91192 3.70442 8.49984 2.85442ZM13.4015 5.6665H11.3119C11.0899 4.78931 10.7616 3.9425 10.3344 3.14484C11.6378 3.59109 12.7215 4.49067 13.4015 5.6665ZM8.49984 1.4165C4.58275 1.4165 1.4165 4.604 1.4165 8.49984C1.4165 10.3785 2.16278 12.1801 3.49116 13.5085C4.14891 14.1663 4.92977 14.688 5.78916 15.044C6.64855 15.4 7.56964 15.5832 8.49984 15.5832C10.3785 15.5832 12.1801 14.8369 13.5085 13.5085C14.8369 12.1801 15.5832 10.3785 15.5832 8.49984C15.5832 7.56964 15.4 6.64855 15.044 5.78916C14.688 4.92977 14.1663 4.14891 13.5085 3.49116C12.8508 2.83342 12.0699 2.31166 11.2105 1.95569C10.3511 1.59972 9.43003 1.4165 8.49984 1.4165Z" fill="#2C2C2D"/>
</svg>
