<svg width="17" height="17" viewBox="0 0 17 17" fill="none" xmlns="http://www.w3.org/2000/svg">
<path d="M8.49984 4.604C8.96949 4.604 9.41991 4.79057 9.75201 5.12267C10.0841 5.45476 10.2707 5.90518 10.2707 6.37484C10.2707 6.60739 10.2249 6.83766 10.1359 7.05251C10.0469 7.26735 9.91644 7.46257 9.75201 7.62701C9.58757 7.79144 9.39235 7.92188 9.17751 8.01087C8.96266 8.09987 8.73239 8.14567 8.49984 8.14567C8.03018 8.14567 7.57976 7.9591 7.24767 7.62701C6.91557 7.29491 6.729 6.84449 6.729 6.37484C6.729 5.90518 6.91557 5.45476 7.24767 5.12267C7.57976 4.79057 8.03018 4.604 8.49984 4.604ZM8.49984 1.4165C9.81487 1.4165 11.076 1.9389 12.0059 2.86877C12.9358 3.79863 13.4582 5.05981 13.4582 6.37484C13.4582 10.0936 8.49984 15.5832 8.49984 15.5832C8.49984 15.5832 3.5415 10.0936 3.5415 6.37484C3.5415 5.05981 4.0639 3.79863 4.99377 2.86877C5.92363 1.9389 7.18481 1.4165 8.49984 1.4165ZM8.49984 2.83317C7.56053 2.83317 6.65969 3.20631 5.9955 3.8705C5.33131 4.53469 4.95817 5.43553 4.95817 6.37484C4.95817 7.08317 4.95817 8.49984 8.49984 13.2528C12.0415 8.49984 12.0415 7.08317 12.0415 6.37484C12.0415 5.43553 11.6684 4.53469 11.0042 3.8705C10.34 3.20631 9.43915 2.83317 8.49984 2.83317Z" fill="#2C2C2D"/>
</svg>
