<svg width="17" height="17" viewBox="0 0 17 17" fill="none" xmlns="http://www.w3.org/2000/svg">
<path d="M2.83317 14.1668C2.44359 14.1668 2.1102 14.0282 1.833 13.751C1.55581 13.4738 1.41698 13.1402 1.4165 12.7502V4.25016C1.4165 3.86058 1.55534 3.52719 1.833 3.25C2.11067 2.9728 2.44406 2.83397 2.83317 2.8335H14.1665C14.5561 2.8335 14.8897 2.97233 15.1674 3.25C15.445 3.52766 15.5836 3.86105 15.5832 4.25016V12.7502C15.5832 13.1397 15.4446 13.4734 15.1674 13.751C14.8902 14.0287 14.5566 14.1673 14.1665 14.1668H2.83317ZM8.49984 9.2085L2.83317 5.66683V12.7502H14.1665V5.66683L8.49984 9.2085ZM8.49984 7.79183L14.1665 4.25016H2.83317L8.49984 7.79183ZM2.83317 5.66683V4.25016V12.7502V5.66683Z" fill="black"/>
</svg>
