<svg width="17" height="17" viewBox="0 0 17 17" fill="none" xmlns="http://www.w3.org/2000/svg">
<path fill-rule="evenodd" clip-rule="evenodd" d="M4.06106 1.44717C4.9231 0.590089 6.3426 0.742381 7.06439 1.70713L7.95831 2.89996C8.54622 3.6848 8.49381 4.7813 7.7961 5.47476L7.62751 5.64334C7.6084 5.71411 7.60646 5.78842 7.62185 5.86009C7.66647 6.14909 7.90801 6.76109 8.91951 7.76692C9.93102 8.77276 10.5473 9.01359 10.8405 9.05892C10.9144 9.07378 10.9907 9.0716 11.0636 9.05255L11.3526 8.76496C11.9731 8.14871 12.9251 8.03326 13.693 8.45046L15.0459 9.18713C16.2054 9.81613 16.498 11.3915 15.5488 12.3357L14.5423 13.3358C14.2249 13.651 13.7985 13.9138 13.2786 13.9627C11.9965 14.0824 9.00947 13.9294 5.86943 10.8078C2.93906 7.89371 2.37664 5.35221 2.3051 4.09988C2.26968 3.46663 2.5686 2.93113 2.94968 2.55288L4.06106 1.44717ZM6.21439 2.34392C5.85527 1.86438 5.1866 1.82613 4.80977 2.20084L3.69768 3.30584C3.46393 3.53817 3.35202 3.79459 3.36618 4.03967C3.42285 5.03488 3.87618 7.32776 6.61885 10.0548C9.4961 12.9151 12.1531 13.0008 13.1801 12.9045C13.3898 12.8853 13.5981 12.7763 13.7928 12.5829L14.7987 11.582C15.2081 11.1754 15.1181 10.4345 14.5387 10.12L13.1858 9.38405C12.8118 9.18146 12.3741 9.24805 12.1021 9.51863L11.7798 9.83951L11.4043 9.46267C11.7798 9.83951 11.7791 9.84021 11.7783 9.84021L11.7776 9.84163L11.7755 9.84376L11.7706 9.84801L11.7599 9.85792C11.73 9.88568 11.6978 9.9108 11.6636 9.93301C11.6069 9.97055 11.5318 10.0123 11.4376 10.047C11.2464 10.1186 10.9928 10.1568 10.6797 10.1087C10.0656 10.0145 9.25172 9.59584 8.1701 8.52059C7.08918 7.44534 6.66702 6.63642 6.5721 6.02301C6.52322 5.70992 6.56218 5.45634 6.63443 5.26509C6.6742 5.15747 6.73113 5.057 6.80302 4.96759L6.82568 4.9428L6.8356 4.93217L6.83985 4.92792L6.84197 4.9258L6.84339 4.92438L7.04739 4.7218C7.35056 4.41934 7.39306 3.91855 7.1076 3.53676L6.21439 2.34392Z" fill="#2C2C2D"/>
<path d="M2.3051 4.09988C2.37664 5.35221 2.93906 7.89371 5.86943 10.8078C9.00947 13.9294 11.9965 14.0824 13.2786 13.9627C13.7985 13.9138 14.2249 13.651 14.5423 13.3358L15.5488 12.3357C16.498 11.3915 16.2054 9.81613 15.0459 9.18713L13.693 8.45046C12.9251 8.03326 11.9731 8.14871 11.3526 8.76496L11.0636 9.05255C10.9907 9.0716 10.9144 9.07378 10.8405 9.05892C10.5473 9.01359 9.93101 8.77276 8.91951 7.76692C7.90801 6.76109 7.66647 6.14909 7.62185 5.86009C7.60646 5.78842 7.6084 5.71411 7.62751 5.64334L7.7961 5.47476C8.49381 4.7813 8.54622 3.6848 7.95831 2.89996L7.06439 1.70713C6.3426 0.742381 4.9231 0.590089 4.06106 1.44717L2.94968 2.55288C2.5686 2.93113 2.26968 3.46663 2.3051 4.09988ZM2.3051 4.09988L2.83564 4.07013M6.84339 4.92438L6.84197 4.9258L6.83985 4.92792L6.8356 4.93217L6.82568 4.9428L6.80302 4.96759C6.73113 5.057 6.6742 5.15747 6.63443 5.26509C6.56218 5.45634 6.52322 5.70992 6.5721 6.02301C6.66702 6.63642 7.08918 7.44534 8.1701 8.52059C9.25172 9.59584 10.0656 10.0145 10.6797 10.1087C10.9928 10.1568 11.2464 10.1186 11.4376 10.047C11.5318 10.0123 11.6069 9.97055 11.6636 9.93301C11.6978 9.9108 11.73 9.88568 11.7599 9.85792L11.7706 9.84801L11.7755 9.84376L11.7776 9.84163L11.7783 9.84021C11.7791 9.84021 11.7798 9.83951 11.4043 9.46267L11.7798 9.83951L12.1021 9.51863C12.3741 9.24805 12.8118 9.18146 13.1858 9.38405L14.5387 10.12C15.1181 10.4345 15.2081 11.1754 14.7987 11.582L13.7928 12.5829C13.5981 12.7763 13.3898 12.8853 13.1801 12.9045C12.1531 13.0008 9.4961 12.9151 6.61885 10.0548C3.87618 7.32776 3.42285 5.03488 3.36618 4.03967C3.35202 3.79459 3.46393 3.53817 3.69768 3.30584L4.80977 2.20084C5.1866 1.82613 5.85527 1.86438 6.21439 2.34392L7.1076 3.53676C7.39306 3.91855 7.35056 4.41934 7.04739 4.7218L6.84339 4.92438ZM6.84339 4.92438L7.21881 5.2998" stroke="black" stroke-width="0.3"/>
</svg>
