<svg width="208" height="150" viewBox="0 0 208 150" fill="none" xmlns="http://www.w3.org/2000/svg">
<g clip-path="url(#clip0_111_89)">
<mask id="mask0_111_89" style="mask-type:luminance" maskUnits="userSpaceOnUse" x="0" y="0" width="208" height="150">
<path d="M207.125 0H0V149.263H207.125V0Z" fill="white"/>
</mask>
<g mask="url(#mask0_111_89)">
<path d="M68.3388 20.6271L79.4707 17.6445L82.6993 5.5943L94.7525 8.81987L103.572 0L112.395 8.82167L124.444 5.59311L127.675 17.6427L139.722 20.8731L136.497 32.9203L145.317 41.7456L136.498 50.5649L139.723 62.6163L127.673 65.8448L124.443 77.8957L112.396 74.6665L103.572 83.4912L102.899 82.8182L94.7477 74.6671L82.7005 77.8957L79.4731 65.8448L67.4205 62.6169L67.6665 61.6991L70.649 50.569L61.8262 41.7462L70.6508 32.9215L67.4211 20.8725L68.3388 20.6271ZM85.3367 8.26815L88.9844 14.5873L93.1976 10.3747L85.3367 8.26815ZM90.2222 16.7304L93.5493 22.493C96.2829 21.0677 99.358 20.2067 102.619 20.0658V13.4086L90.2222 16.7304ZM91.909 23.4412L88.5826 17.6798L79.5053 26.757L85.2662 30.0835C86.1183 28.7501 87.1113 27.5153 88.2255 26.4011C89.3397 25.2869 90.5745 24.2933 91.909 23.4412ZM87.3436 15.5343L83.6958 9.21635L81.5898 17.0761L87.3436 15.5343ZM71.0401 21.8703L77.3605 25.5192L78.9023 19.7637L71.0401 21.8703ZM84.318 31.7243L78.5565 28.3978L75.2348 40.795H81.8902C82.0305 37.533 82.8921 34.4585 84.318 31.7243ZM76.4123 27.1594L70.0961 23.5129L72.2015 31.3702L76.4123 27.1594ZM65.4685 40.7956H72.761L71.2193 35.0442L65.4685 40.7956ZM81.8896 42.6986H75.2366L78.5583 55.0951L84.318 51.7698C82.8921 49.0363 82.0311 45.9612 81.8896 42.6986ZM72.7574 42.6986H65.4691L71.2169 48.4463L72.7574 42.6986ZM70.0943 59.9818L76.4123 56.3335L72.2003 52.1209L70.0943 59.9818ZM85.2674 53.4101L79.5065 56.7354L88.5838 65.8126L91.9102 60.0517C90.5757 59.1996 89.3409 58.206 88.2261 57.0918C87.1119 55.9776 86.1189 54.744 85.2674 53.4101ZM77.3641 57.9732L71.0449 61.6215L78.9058 63.7275L77.3641 57.9732ZM83.6982 74.2766L87.3477 67.9544L81.591 66.4121L83.6982 74.2766ZM93.5505 61.0011L90.2258 66.7602L102.622 70.0819V63.4283C99.3609 63.2868 96.2852 62.427 93.5505 61.0011ZM88.9868 68.9068L85.3409 75.2206L93.1952 73.1164L88.9868 68.9068ZM102.622 79.8506V72.5575L96.8704 74.0987L102.622 79.8506ZM104.525 63.4277V70.0801L116.919 66.759L113.595 60.9993C110.861 62.4246 107.786 63.2862 104.525 63.4277ZM104.525 72.5575V79.847L110.274 74.0981L104.525 72.5575ZM121.805 75.2218L118.158 68.9056L113.948 73.1164L121.805 75.2218ZM115.237 60.0487L118.563 65.809L127.639 56.733L121.877 53.4065C121.025 54.7416 120.031 55.977 118.916 57.0918C117.803 58.2048 116.57 59.1978 115.237 60.0487ZM119.802 67.9544L123.448 74.2694L125.553 66.4133L119.802 67.9544ZM136.103 61.6191L129.784 57.972L128.242 63.7251L136.103 61.6191ZM122.826 51.7662L128.586 55.0915L131.908 42.6956H125.253C125.112 45.957 124.252 49.0321 122.827 51.7656L122.826 51.7662ZM130.732 56.3305L137.049 59.9777L134.943 52.1197L130.732 56.3305ZM141.676 42.6962H134.39L135.93 48.4427L141.676 42.6962ZM125.252 40.7926H131.907L128.586 28.396L122.824 31.7231C124.25 34.4567 125.111 37.5318 125.252 40.7926ZM134.388 40.7926H141.673L135.928 35.0478L134.388 40.7926ZM137.048 23.5111L130.733 27.157L134.943 31.3673L137.048 23.5111ZM121.875 30.0829L127.636 26.7564L118.56 17.6792L115.233 23.4412C116.567 24.2927 117.802 25.2863 118.916 26.4011C120.03 27.5147 121.023 28.7495 121.875 30.0829ZM129.785 25.5162L136.1 21.8703L128.244 19.7649L129.785 25.5162ZM123.447 9.21456L119.8 15.5314L125.553 17.0737L123.447 9.21456ZM113.593 22.493L116.92 16.7304L104.523 13.4092V20.0652C107.784 20.2067 110.859 21.0677 113.593 22.493ZM118.159 14.5844L121.806 8.26874L113.946 10.3741L118.159 14.5844ZM104.522 3.64295V10.9318L110.271 9.39131L104.522 3.64295ZM102.619 10.9277V3.64355L96.8746 9.38832L102.619 10.9277ZM117.57 27.747C113.988 24.1643 109.038 21.9485 103.571 21.9485C98.1034 21.9485 93.1528 24.1643 89.5702 27.747C85.9881 31.3296 83.7717 36.2797 83.7717 41.7468C83.7717 47.2139 85.9881 52.1645 89.5702 55.7466C93.1528 59.3292 98.1028 61.5457 103.571 61.5457C109.037 61.5457 113.988 59.3292 117.57 55.7466C121.153 52.1645 123.369 47.2145 123.369 41.7468C123.369 36.2803 121.153 31.3296 117.57 27.747ZM85.5994 65.5212L79.7961 59.7179L81.0226 64.2947L85.5994 65.5212ZM79.7937 23.7768L85.6024 17.9682L81.0214 19.1952L79.7937 23.7768ZM121.545 17.97L127.346 23.7703L126.12 19.1958L121.545 17.97ZM127.346 59.7161L121.541 65.5206L126.119 64.2942L127.345 59.7167L127.346 59.7161ZM72.7676 49.9976L76.1245 53.3551L73.9958 45.4118L72.7676 49.9976ZM91.961 69.191L95.3167 72.5474L99.9013 71.3191L91.961 69.191ZM111.823 72.5474L115.178 69.1928L107.242 71.3191L111.824 72.5468L111.823 72.5474ZM131.023 53.348L134.374 49.997L133.148 45.4208L131.023 53.348ZM134.372 33.493L131.026 30.1468L133.148 38.0626L134.372 33.493ZM115.17 14.29L111.821 10.942L107.25 12.1673L115.17 14.29ZM95.3197 10.9426L91.9676 14.2942L99.8989 12.1691L95.3197 10.9426ZM76.1215 30.1402L72.77 33.4918L73.9964 38.071L76.1215 30.1402Z" fill="url(#paint0_linear_111_89)"/>
<path d="M24.2647 97.4064V110.355H8.94467V97.4064H0V130.71H8.94467V117.808H24.2647V130.71H33.2093V97.4064H24.2647ZM41.5873 130.71H70.276V123.479H50.5314V117.143H69.5624V110.918H50.5314V104.638H70.276V97.4064H41.5873V130.71ZM78.654 130.71H106.313V123.241H87.5987V97.4064H78.654V130.71ZM114.492 130.71H123.436V97.4064H114.492V130.71ZM149.751 131.805C160.796 131.805 168.211 124.573 168.211 114.059C168.211 103.505 160.796 96.3131 149.751 96.3131C138.666 96.3131 131.252 103.505 131.252 114.059C131.252 124.574 138.666 131.805 149.751 131.805ZM149.751 124.097C144.327 124.097 140.132 120.172 140.132 114.059C140.132 107.905 144.327 104.02 149.751 104.02C155.135 104.02 159.369 107.905 159.369 114.059C159.369 120.172 155.135 124.097 149.751 124.097ZM190.909 131.805C201.614 131.844 207.125 128.126 207.125 121.275C207.125 112.941 198.878 112.148 192.456 110.998L188.847 110.364C185.755 109.848 184.479 108.619 184.479 106.915C184.479 104.734 186.548 103.306 190.79 103.306C195.509 103.306 197.689 105.13 198.165 107.865H206.173C206.173 99.1989 199.949 96.3125 190.948 96.3125C181.235 96.3125 175.883 100.142 175.883 106.517C175.883 114.177 182.583 115.565 188.927 116.635L193.09 117.349C196.817 117.943 198.244 119.093 198.244 120.997C198.244 123.256 195.746 124.803 190.909 124.763C185.675 124.763 183.296 122.939 183.098 120.125H175.01C174.892 128.205 180.283 131.805 190.909 131.805Z" fill="#2B2A29"/>
<path d="M5.05175 144.81V148.285H4.0092V144.81L0.197266 140.922H1.57658L4.51913 143.909L7.47361 140.922H8.84218L5.05175 144.81ZM18.1517 147.351C17.4017 148.024 16.3902 148.361 15.1166 148.361C13.8352 148.361 12.8231 148.026 12.0815 147.356C11.3393 146.686 10.9679 145.772 10.9679 144.614C10.9679 143.456 11.3482 142.551 12.1083 141.899C12.8398 141.27 13.8423 140.955 15.1172 140.955C16.3908 140.955 17.3975 141.27 18.1361 141.899C18.8963 142.551 19.2766 143.456 19.2766 144.614C19.2766 145.765 18.9022 146.677 18.1529 147.351H18.1517ZM17.4184 142.6C16.8751 142.133 16.1078 141.899 15.116 141.899C14.1242 141.899 13.3605 142.134 12.8237 142.606C12.2881 143.076 12.02 143.746 12.02 144.614C12.02 145.483 12.2917 146.167 12.8344 146.666C13.3778 147.166 14.1379 147.416 15.1154 147.416C16.1066 147.416 16.8745 147.169 17.4178 146.672C17.9606 146.176 18.2323 145.491 18.2323 144.614C18.2323 143.738 17.9612 143.066 17.4184 142.6ZM28.3843 147.698C27.8338 148.14 27.0086 148.361 25.9081 148.361C23.6492 148.361 22.5201 147.391 22.5201 145.45V140.922H23.5627V145.45C23.5627 146.116 23.7496 146.611 24.1221 146.933C24.4947 147.255 25.0907 147.416 25.9087 147.416C26.7196 147.416 27.3167 147.253 27.7006 146.927C28.0696 146.622 28.2541 146.141 28.2541 145.482V140.921H29.2967V145.471C29.2967 146.471 28.9922 147.214 28.3843 147.698ZM38.482 144.691C39.0468 145.045 39.3287 145.581 39.3287 146.298V148.285H38.2861V146.331C38.2861 145.578 37.6926 145.202 36.5056 145.202H33.8556V148.286H32.813V140.923H36.6035C38.4927 140.923 39.4374 141.604 39.4374 142.964C39.4374 143.739 39.1191 144.315 38.482 144.691ZM36.625 141.867H33.8556V144.245H36.4512C37.0304 144.245 37.4896 144.147 37.8305 143.953C38.2067 143.735 38.3948 143.416 38.3948 142.997C38.3948 142.244 37.8049 141.867 36.625 141.867ZM47.9885 141.867V143.985H51.985V144.929H47.9885V148.285H46.9567V140.922H52.6579V141.867H47.9885ZM61.387 147.699C60.8365 148.141 60.0113 148.362 58.9108 148.362C56.652 148.362 55.5228 147.391 55.5228 145.451V140.922H56.5654V145.451C56.5654 146.117 56.7523 146.612 57.1249 146.933C57.4975 147.255 58.0934 147.416 58.9114 147.416C59.7223 147.416 60.3194 147.253 60.7033 146.927C61.0724 146.623 61.2569 146.142 61.2569 145.483V140.922H62.2994V145.472C62.2994 146.471 61.9949 147.213 61.387 147.698V147.699ZM69.0843 141.867V148.285H68.0418V141.867H65.2181V140.922H71.8973V141.867H69.0843ZM80.6808 147.699C80.1302 148.141 79.305 148.362 78.2046 148.362C75.9457 148.362 74.8166 147.391 74.8166 145.451V140.922H75.8591V145.451C75.8591 146.117 76.046 146.612 76.4186 146.933C76.7912 147.255 77.3871 147.416 78.2052 147.416C79.016 147.416 79.6131 147.253 79.9971 146.927C80.3661 146.623 80.5506 146.142 80.5506 145.483V140.922H81.5931V145.472C81.5931 146.471 81.2886 147.213 80.6808 147.698V147.699ZM90.7785 144.691C91.3433 145.046 91.6251 145.582 91.6251 146.299V148.286H90.5826V146.331C90.5826 145.579 89.9891 145.202 88.802 145.202H86.1521V148.286H85.1095V140.923H88.8999C90.7892 140.923 91.7338 141.604 91.7338 142.965C91.7338 143.739 91.4156 144.316 90.7785 144.692V144.691ZM88.9214 141.868H86.1521V144.246H88.7477C89.3269 144.246 89.7861 144.148 90.127 143.953C90.5032 143.736 90.6913 143.417 90.6913 142.997C90.6913 142.244 90.1013 141.868 88.9214 141.868ZM95.1636 148.286V140.923H101.256V141.868H96.1948V143.985H100.68V144.93H96.1948V147.341H101.31V148.286H95.1636ZM105.858 148.981C105.778 149.17 105.576 149.263 105.25 149.263C104.968 149.263 104.826 149.137 104.826 148.884C104.826 148.847 104.837 148.8 104.859 148.742L105.315 147.634C105.395 147.446 105.558 147.352 105.804 147.352C105.941 147.352 106.064 147.387 106.173 147.455C106.282 147.524 106.336 147.616 106.336 147.731C106.336 147.775 106.329 147.818 106.315 147.861L105.859 148.98L105.858 148.981ZM118.102 144.811V148.286H117.06V144.811L113.248 140.923H114.627L117.569 143.91L120.524 140.923H121.893L118.102 144.811ZM131.202 147.353C130.452 148.025 129.441 148.362 128.167 148.362C126.886 148.362 125.873 148.027 125.132 147.357C124.39 146.687 124.018 145.773 124.018 144.615C124.018 143.457 124.399 142.552 125.159 141.9C125.89 141.271 126.893 140.956 128.168 140.956C129.441 140.956 130.448 141.271 131.187 141.9C131.947 142.552 132.327 143.458 132.327 144.615C132.327 145.767 131.952 146.678 131.202 147.353ZM130.469 142.601C129.925 142.134 129.158 141.9 128.166 141.9C127.175 141.9 126.411 142.136 125.874 142.607C125.338 143.077 125.07 143.747 125.07 144.615C125.07 145.484 125.342 146.168 125.885 146.668C126.428 147.167 127.188 147.418 128.166 147.418C129.157 147.418 129.925 147.17 130.468 146.674C131.011 146.177 131.283 145.492 131.283 144.615C131.283 143.739 131.011 143.068 130.468 142.601H130.469ZM141.435 147.699C140.884 148.141 140.059 148.362 138.958 148.362C136.7 148.362 135.57 147.392 135.57 145.451V140.923H136.613V145.451C136.613 146.117 136.8 146.612 137.173 146.934C137.545 147.256 138.141 147.417 138.959 147.417C139.77 147.417 140.367 147.254 140.751 146.928C141.12 146.623 141.304 146.142 141.304 145.484V140.922H142.347V145.472C142.347 146.472 142.043 147.214 141.435 147.698V147.699ZM151.532 144.692C152.097 145.047 152.379 145.582 152.379 146.299V148.286H151.336V146.332C151.336 145.579 150.743 145.203 149.556 145.203H146.906V148.287H145.863V140.924H149.654C151.543 140.924 152.488 141.605 152.488 142.966C152.488 143.74 152.169 144.316 151.532 144.692ZM149.675 141.868H146.906V144.246H149.502C150.081 144.246 150.54 144.148 150.881 143.954C151.257 143.736 151.445 143.418 151.445 142.998C151.445 142.245 150.855 141.869 149.675 141.869V141.868ZM163.374 148.363C162.39 148.363 161.585 148.196 160.962 147.863C160.166 147.429 159.768 146.748 159.768 145.822V145.343H160.821V145.789C160.821 146.875 161.675 147.418 163.384 147.418C164.007 147.418 164.513 147.331 164.905 147.157C165.368 146.961 165.6 146.668 165.6 146.278C165.6 145.995 165.527 145.789 165.382 145.659C165.238 145.528 164.981 145.413 164.611 145.311C164.394 145.254 163.884 145.145 163.08 144.986C162.131 144.797 161.484 144.62 161.136 144.453C160.39 144.098 160.018 143.563 160.018 142.846C160.018 141.513 161.068 140.848 163.167 140.848C165.354 140.848 166.461 141.742 166.49 143.53H165.469C165.419 142.763 165.195 142.278 164.796 142.075C164.442 141.887 163.898 141.793 163.167 141.793C161.763 141.793 161.06 142.145 161.06 142.847C161.06 143.18 161.226 143.429 161.56 143.596C161.835 143.726 162.316 143.849 163.004 143.966C164.35 144.19 165.256 144.432 165.719 144.693C166.335 145.041 166.642 145.576 166.642 146.3C166.642 147.032 166.255 147.578 165.48 147.94C164.894 148.223 164.192 148.363 163.374 148.363ZM175.599 144.833C175.064 145.13 174.398 145.278 173.601 145.278H171.104V148.287H170.061V140.924H173.721C175.675 140.924 176.653 141.659 176.653 143.129C176.653 143.882 176.302 144.451 175.599 144.834V144.833ZM173.786 141.868H171.103V144.334H173.797C174.317 144.334 174.741 144.233 175.067 144.03C175.422 143.813 175.599 143.516 175.599 143.139C175.599 142.293 174.994 141.869 173.786 141.869V141.868ZM186.012 148.286L184.958 146.115H181.331L180.256 148.286H179.083L182.775 140.923H183.59L187.152 148.286H186.012ZM183.177 142.454L181.809 145.17H184.502L183.177 142.454ZM196.609 142.997C196.29 142.563 195.93 142.253 195.528 142.069C195.127 141.885 194.625 141.792 194.024 141.792C193.046 141.792 192.274 142.047 191.706 142.557C191.137 143.068 190.853 143.754 190.853 144.615C190.853 145.47 191.123 146.15 191.662 146.657C192.201 147.164 192.949 147.418 193.904 147.418C194.476 147.418 194.967 147.323 195.376 147.135C195.785 146.947 196.167 146.635 196.521 146.201L197.412 146.733C196.514 147.819 195.349 148.363 193.915 148.363C192.67 148.363 191.675 148.028 190.929 147.358C190.183 146.688 189.811 145.789 189.811 144.66C189.811 143.494 190.194 142.567 190.962 141.879C191.73 141.192 192.75 140.848 194.024 140.848C195.515 140.848 196.671 141.387 197.489 142.466L196.609 142.998V142.997ZM200.766 148.286V140.923H206.859V141.868H201.797V143.986H206.282V144.931H201.797V147.342H206.913V148.286H200.766Z" fill="#2B2A29"/>
</g>
</g>
<defs>
<linearGradient id="paint0_linear_111_89" x1="51.0687" y1="81.9823" x2="153.023" y2="6.61299" gradientUnits="userSpaceOnUse">
<stop stop-color="#E53A24"/>
<stop offset="0.121569" stop-color="#EA5E20"/>
<stop offset="0.180392" stop-color="#EA5E20"/>
<stop offset="0.290196" stop-color="#F18917"/>
<stop offset="0.360784" stop-color="#F9B101"/>
<stop offset="0.521569" stop-color="#E53A24"/>
<stop offset="0.611765" stop-color="#F9B101"/>
<stop offset="0.74902" stop-color="#F18917"/>
<stop offset="0.870588" stop-color="#E53A24"/>
<stop offset="0.909804" stop-color="#EA5E20"/>
<stop offset="1" stop-color="#EA5E20"/>
</linearGradient>
<clipPath id="clip0_111_89">
<rect width="208" height="150" fill="white"/>
</clipPath>
</defs>
</svg>
