<svg width="190" height="10" viewBox="0 0 310 10" fill="none" xmlns="http://www.w3.org/2000/svg">
<rect y="9.2428" width="9.24277" height="310" rx="3" transform="rotate(-90 0 9.2428)" fill="white"/>
<rect width="2.29616" height="15.3265" transform="matrix(-0.998293 -0.0583962 0.814832 -0.579698 5.62891 9.13062)" fill="black"/>
<rect width="2.29616" height="15.3265" transform="matrix(-0.998293 -0.0583962 0.814832 -0.579698 17.5469 9.13062)" fill="black"/>
<rect width="2.29616" height="15.3265" transform="matrix(-0.998293 -0.0583962 0.814832 -0.579698 29.4785 9.13062)" fill="black"/>
<rect width="2.29616" height="15.3265" transform="matrix(-0.998293 -0.0583962 0.814832 -0.579698 41.3965 9.13062)" fill="black"/>
<rect width="2.29616" height="15.3265" transform="matrix(-0.998293 -0.0583962 0.814832 -0.579698 53.3184 9.13062)" fill="black"/>
<rect width="2.29616" height="15.3265" transform="matrix(-0.998293 -0.0583962 0.814832 -0.579698 65.2363 9.13062)" fill="black"/>
<rect width="2.29616" height="15.3265" transform="matrix(-0.998293 -0.0583962 0.814832 -0.579698 77.168 9.13062)" fill="black"/>
<rect width="2.29616" height="15.3265" transform="matrix(-0.998293 -0.0583962 0.814832 -0.579698 89.0859 9.13062)" fill="black"/>
<rect width="2.29616" height="15.3265" transform="matrix(-0.998293 -0.0583962 0.814832 -0.579698 101.006 9.13062)" fill="black"/>
<rect width="2.29616" height="15.3265" transform="matrix(-0.998293 -0.0583962 0.814832 -0.579698 112.938 9.13062)" fill="black"/>
<rect width="2.29616" height="15.3265" transform="matrix(-0.998293 -0.0583962 0.814832 -0.579698 124.857 9.13062)" fill="black"/>
<rect width="2.29616" height="15.3265" transform="matrix(-0.998293 -0.0583962 0.814832 -0.579698 136.775 9.13062)" fill="black"/>
<rect width="2.29616" height="15.3265" transform="matrix(-0.998293 -0.0583962 0.814832 -0.579698 148.707 9.13062)" fill="black"/>
<rect width="2.29616" height="15.3265" transform="matrix(-0.998293 -0.0583962 0.814832 -0.579698 160.629 9.13062)" fill="black"/>
<rect width="2.29616" height="15.3265" transform="matrix(-0.998293 -0.0583962 0.814832 -0.579698 172.547 9.13062)" fill="black"/>
<rect width="2.29616" height="15.3265" transform="matrix(-0.998293 -0.0583962 0.814832 -0.579698 184.479 9.13062)" fill="black"/>
<rect width="2.29616" height="15.3265" transform="matrix(-0.998293 -0.0583962 0.814832 -0.579698 196.396 9.13062)" fill="black"/>
<rect width="2.29616" height="15.3265" transform="matrix(-0.998293 -0.0583962 0.814832 -0.579698 208.318 9.13062)" fill="black"/>
<rect width="2.29616" height="15.3265" transform="matrix(-0.998293 -0.0583962 0.814832 -0.579698 220.236 9.13062)" fill="black"/>
<rect width="2.29616" height="15.3265" transform="matrix(-0.998293 -0.0583962 0.814832 -0.579698 232.168 9.13062)" fill="black"/>
<rect width="2.29616" height="15.3265" transform="matrix(-0.998293 -0.0583962 0.814832 -0.579698 244.086 9.13062)" fill="black"/>
<rect width="2.29616" height="15.3265" transform="matrix(-0.998293 -0.0583962 0.814832 -0.579698 256.006 9.13062)" fill="black"/>
<rect width="2.29616" height="15.3265" transform="matrix(-0.998293 -0.0583962 0.814832 -0.579698 267.938 9.13062)" fill="black"/>
<rect width="2.29616" height="15.3265" transform="matrix(-0.998293 -0.0583962 0.814832 -0.579698 279.857 9.13062)" fill="black"/>
<rect width="2.29616" height="15.3265" transform="matrix(-0.998293 -0.0583962 0.814832 -0.579698 291.775 9.13062)" fill="black"/>
</svg>
